<svg xmlns="http://www.w3.org/2000/svg" xmlns:xlink="http://www.w3.org/1999/xlink" viewBox="0 0 426.48 426.25"><defs><style>.cls-1,.cls-37{fill:#9d9bf0;}.cls-15,.cls-16,.cls-17,.cls-18,.cls-2,.cls-9{fill:none;}.cls-3,.cls-36{fill:#86f6c6;}.cls-38,.cls-4{fill:#6765b4;}.cls-5{fill:#3a3d7e;}.cls-6{fill:#0d0f3d;}.cls-7{fill:#fffcef;}.cls-8{clip-path:url(#clip-path);}.cls-15,.cls-16,.cls-17,.cls-18,.cls-9{stroke:#fffcef;stroke-miterlimit:10;stroke-width:3px;}.cls-10{fill:#9c98ca;}.cls-11{fill:#6766ab;}.cls-12{clip-path:url(#clip-path-2);}.cls-13{fill:#6392a0;}.cls-14{fill:#1e9593;}.cls-15{stroke-dasharray:23.34;}.cls-16{stroke-dasharray:53.57;}.cls-17{stroke-dasharray:53.2;}.cls-18{stroke-dasharray:3.18 2.54 0 0;}.cls-19{clip-path:url(#clip-path-3);}.cls-20{fill:#9fc1ca;}.cls-21{fill:#b3bfc6;}.cls-22{fill:#dbf0f4;}.cls-23{fill:#e8eff2;}.cls-24{fill:#7e8f9a;}.cls-25{fill:#abd4dc;}.cls-26{fill:#92ebe3;}.cls-27{fill:#fdf4aa;}.cls-28{fill:#fff5aa;}.cls-29{fill:#92d0c7;}.cls-30{clip-path:url(#clip-path-4);}.cls-31{fill:#92ebe4;}.cls-32{fill:#fccf77;}.cls-33{fill:#cc5113;}.cls-33,.cls-34,.cls-35,.cls-36,.cls-37,.cls-38{opacity:0.85;}.cls-34{fill:#e49045;}.cls-35{fill:#ffe6b8;}.cls-39{fill:#ffd86c;}</style><clipPath id="clip-path" transform="translate(-736.88 -541.41)"><circle class="cls-1" cx="799.14" cy="905.4" r="62.25"/></clipPath><clipPath id="clip-path-2" transform="translate(-736.88 -541.41)"><circle class="cls-2" cx="1101.11" cy="756.73" r="62.25"/></clipPath><clipPath id="clip-path-3" transform="translate(-736.88 -541.41)"><path class="cls-2" d="M1138.41,730.26c-.78-4.07-3.77-8.74-14.59-7.84a12.89,12.89,0,0,0-6.09,2.05,35,35,0,0,0-2.91-7.27c-5.27-7.94-15.56-9.2-21.9-2.68-2,2.08-3.75,5.72-5.61,9.34a10.45,10.45,0,0,0-5-1.25c-5.42,0-9.81,4.06-9.81,9.06a8.59,8.59,0,0,0,.13,1.45,22,22,0,0,0-3-1.63c-5.75-2.39-12.52,2.4-13.77,10,33.68,0,63.12.56,96.8.25C1151.56,731.85,1145.33,728.48,1138.41,730.26Z"/></clipPath><clipPath id="clip-path-4" transform="translate(-736.88 -541.41)"><circle class="cls-3" cx="950.61" cy="603.66" r="62.25"/></clipPath></defs><g id="_09_Suicidal" data-name="09 Suicidal"><path class="cls-4" d="M1078.87,879.66a78.21,78.21,0,0,1,30.72-14.1c32.68-7,39.92,13.25,39.92,13.25,1.27,0,5,3.71,1.49,7,0,0,3.11,6.46-2.52,7.26,0,0-.41,5.84-6.83,4,0,.53-6.29,3.19-9-2.7h0l-.28-.22c-1.15-.37-5.49-.39-5.24-5.52a3.09,3.09,0,0,1-1.11-.14,22,22,0,0,0,1.74,36.42c3.13,1.91,6.42,3.75,9.63,5.43,6.71,3.54,13,6.42,16.61,8a62.21,62.21,0,0,0-14.16-81.58l-97.12,27.16a62.48,62.48,0,0,0-3.09,31.31A292.47,292.47,0,0,1,1078.87,879.66Z" transform="translate(-736.88 -541.41)"/><path class="cls-5" d="M1101.11,843.14a62.26,62.26,0,0,0-58.4,40.68l97.12-27.16A62,62,0,0,0,1101.11,843.14Z" transform="translate(-736.88 -541.41)"/><path class="cls-5" d="M1132.36,894.05l.28.22C1132.64,894.18,1132.53,894.11,1132.36,894.05Z" transform="translate(-736.88 -541.41)"/><path class="cls-5" d="M1137.38,930.24h-.14c-37.34-4.19-42.73-30.21-32.2-44.32a10.81,10.81,0,0,1-3.93.31s3-4.25,6-6c3.72-2.16,9.28-4.24,12.12-3.92,8,.9,15.07,15.88,22.44,15.23s7.86-12.76,7.86-12.76-7.24-20.25-39.92-13.25a78.21,78.21,0,0,0-30.72,14.1,292.47,292.47,0,0,0-39.25,35.47A62.25,62.25,0,0,0,1154,938.24C1150.4,936.66,1144.09,933.78,1137.38,930.24Z" transform="translate(-736.88 -541.41)"/><path class="cls-6" d="M1126,888.39c-1.12-.36-2.63-1.53-2.4-5.33,0,0-4,2.26-6.89-2.34,0,0-.91,5-5.89,2.26a16,16,0,0,1-5.79,2.94c-10.53,14.11-5.14,40.13,32.2,44.32h.14c-3.21-1.68-6.5-3.52-9.63-5.43A22,22,0,0,1,1126,888.39Z" transform="translate(-736.88 -541.41)"/><path class="cls-7" d="M1116.72,880.72c2.88,4.6,6.89,2.34,6.89,2.34-.23,3.8,1.28,5,2.4,5.33a3.09,3.09,0,0,0,1.11.14c-.25,5.13,4.09,5.15,5.24,5.52.17.06.28.13.28.22h0c2.72,5.89,9,3.23,9,2.7,6.42,1.89,6.83-4,6.83-4,5.63-.8,2.52-7.26,2.52-7.26,3.54-3.24-.22-6.92-1.49-7,0,0-.48,12.11-7.86,12.76s-14.48-14.33-22.44-15.23c-2.84-.32-8.4,1.76-12.12,3.92-3,1.72-6,6-6,6a10.81,10.81,0,0,0,3.93-.31,16,16,0,0,0,5.79-2.94C1115.81,885.71,1116.72,880.72,1116.72,880.72Z" transform="translate(-736.88 -541.41)"/></g><g id="_08_Low_with_Engery" data-name="08 Low with Engery"><path class="cls-1" d="M925.67,947.51a10.86,10.86,0,0,1,9.69,5.75,6.67,6.67,0,0,1,1.79-.25,7.06,7.06,0,0,1,6.15,3.71,8.19,8.19,0,0,1,1.73-.2c.25,0,.5,0,.74,0a2.23,2.23,0,0,1,.73-1c2.35-1.9-3-5.57.91-7.78a1.88,1.88,0,0,0,.91-2.67c-.78-2-3.13-4.24-.31-6,4.26-2.59-5.13-6.13,0-10.73s-6.53-2.1-.73-10.78c0,0-5.2-4.93-3.31-9.81L890.5,921.61A62.34,62.34,0,0,0,915,956.42,10.69,10.69,0,0,1,925.67,947.51Z" transform="translate(-736.88 -541.41)"/><path class="cls-1" d="M921.57,960.47a62.3,62.3,0,0,0,58.07,0Z" transform="translate(-736.88 -541.41)"/><path class="cls-1" d="M985.51,897.06a16.06,16.06,0,0,1-7,2.91c-.4.38,8.59,9.68-3.84,12.53,0,0,4.14,9.78-4.12,11.27,0,0,3,9.7-3,10.52.68.87.68,6.24-6.08,7.42-1.11-.08,3,4.34-3.78,6.34-1.16.74,1.47,5.47-3.07,6.8.12,0,.29.52.32,1.25a7.83,7.83,0,0,1,4.38.11,7.17,7.17,0,0,1,6.7-4.91,6.93,6.93,0,0,1,1.77.24,11,11,0,0,1,9.19-4.89,10.71,10.71,0,0,1,10.69,8.71,62.32,62.32,0,0,0,23.3-64.9Z" transform="translate(-736.88 -541.41)"/><path class="cls-4" d="M944,907.79a8,8,0,0,1,2.75-3.44s-7.83-10,1-14.37c0,0-9.62-5.63-2.86-12.17,0,0-8.06-6.75-3.77-9.76,0,0-4.37-4.84-3.7-9.5h49.52c2.07,1.91,8.12,8.38.31,12.72,0,0,9.81,8.11.13,14-.31.3,3.71,7.28-1.85,11.75l25.54-6.6A62.26,62.26,0,1,0,890.5,921.61Z" transform="translate(-736.88 -541.41)"/><path class="cls-7" d="M987.36,885.31c9.68-5.93-.13-14-.13-14,7.81-4.34,1.76-10.81-.31-12.72H975.24c2.43,2.64,5.89,7.91-.8,11.62,0,0,9.82,8.11.13,14-.39.39,6.24,11.58-8.8,14.66-.4.39,8.59,9.68-3.84,12.53,0,0,4.13,9.78-4.13,11.27,0,0,3,9.7-3,10.52.69.88.68,6.24-6.07,7.42-.83-.06,1.26,2.38-.45,4.46a1.88,1.88,0,0,1-.91,2.67c-3.86,2.21,1.44,5.88-.91,7.78a2.23,2.23,0,0,0-.73,1,7.6,7.6,0,0,1,5,2.49A7.47,7.47,0,0,1,955,956.1c0-.73-.2-1.24-.32-1.25,4.54-1.33,1.91-6.06,3.07-6.8,6.81-2,2.67-6.42,3.78-6.34,6.76-1.18,6.76-6.55,6.08-7.42,6-.82,3-10.52,3-10.52,8.26-1.49,4.12-11.27,4.12-11.27,12.43-2.85,3.44-12.15,3.84-12.53a16.06,16.06,0,0,0,7-2.91C991.07,892.59,987.05,885.61,987.36,885.31Z" transform="translate(-736.88 -541.41)"/><path class="cls-3" d="M948.77,940.61c6.75-1.18,6.76-6.54,6.07-7.42,6-.82,3-10.52,3-10.52,8.26-1.49,4.13-11.27,4.13-11.27,12.43-2.85,3.44-12.14,3.84-12.53,15-3.08,8.41-14.27,8.8-14.66,9.69-5.93-.13-14-.13-14,6.69-3.71,3.23-9,.8-11.62H937.4c-.67,4.66,3.7,9.5,3.7,9.5-4.29,3,3.77,9.76,3.77,9.76-6.76,6.54,2.86,12.17,2.86,12.17-8.83,4.34-1,14.37-1,14.37a8,8,0,0,0-2.75,3.44c-1.89,4.88,3.31,9.81,3.31,9.81-5.8,8.68,5.87,6.19.73,10.78s4.25,8.14,0,10.73c-2.82,1.72-.47,4,.31,6C950,943,947.94,940.55,948.77,940.61Z" transform="translate(-736.88 -541.41)"/><path class="cls-4" d="M977.06,946.65a11,11,0,0,0-9.19,4.89,6.93,6.93,0,0,0-1.77-.24,7.17,7.17,0,0,0-6.7,4.91,7.83,7.83,0,0,0-4.38-.11,7.47,7.47,0,0,0-4.26,2.95,7.6,7.6,0,0,0-5-2.49c-.24,0-.49,0-.74,0a8.19,8.19,0,0,0-1.73.2,7.06,7.06,0,0,0-6.15-3.71,6.67,6.67,0,0,0-1.79.25,10.86,10.86,0,0,0-9.69-5.75A10.69,10.69,0,0,0,915,956.42a64.71,64.71,0,0,0,6.62,4.05h58.07a62.89,62.89,0,0,0,8.11-5.11A10.71,10.71,0,0,0,977.06,946.65Z" transform="translate(-736.88 -541.41)"/></g><g id="_07_Very_Low" data-name="07 Very Low"><circle class="cls-1" cx="62.25" cy="363.99" r="62.25"/><g class="cls-8"><path class="cls-4" d="M799.14,967.65a62.25,62.25,0,0,0,56.79-36.76L763.8,956.65A62,62,0,0,0,799.14,967.65Z" transform="translate(-736.88 -541.41)"/><g id="Rain"><line class="cls-9" x1="79.16" y1="333.3" x2="62.89" y2="364.96"/><line class="cls-9" x1="87.45" y1="334.78" x2="66.58" y2="374.89"/><line class="cls-9" x1="27.85" y1="352.39" x2="13.28" y2="380.36"/><line class="cls-9" x1="32.52" y1="361.14" x2="17.81" y2="389.39"/><line class="cls-9" x1="91.62" y1="343.26" x2="60.17" y2="403.96"/><line class="cls-9" x1="88.8" y1="362.96" x2="74.09" y2="391.2"/><line class="cls-9" x1="103.8" y1="348.22" x2="76.04" y2="401.54"/><line class="cls-9" x1="104.41" y1="360.54" x2="89.7" y2="388.78"/><line class="cls-9" x1="65.49" y1="343.26" x2="34.04" y2="403.96"/><line class="cls-9" x1="47.92" y1="344.53" x2="20.16" y2="397.85"/><line class="cls-9" x1="42.01" y1="373.61" x2="28.06" y2="400.41"/><line class="cls-9" x1="59.9" y1="371.18" x2="43.63" y2="402.84"/><line class="cls-9" x1="65.49" y1="378.54" x2="51.34" y2="405.71"/></g><path class="cls-10" d="M768.06,882.3a17.87,17.87,0,0,1,2.18.9c.45-4.67,5-8.34,10.52-8.34a11.66,11.66,0,0,1,6.06,1.65,26.09,26.09,0,0,1,3.28-3.35c6-4.82,15.77-3.88,20.77,2,.35.41.68.84,1,1.29A14.67,14.67,0,0,1,819,874.7c5.36,0,9.81,2.52,10.66,5.82,7.8-2.42,15,3.21,16.58,11.37l6.45,0c-1.4-10.69-9.43-18.24-18.2-15.14-.92-4.1-5.75-7.22-11.58-7.22a14.38,14.38,0,0,0-7.74,2.14c-.36-.55-.72-1.09-1.1-1.6-5.43-7.28-16-8.43-22.57-2.46a30.51,30.51,0,0,0-3.57,4.17,11.52,11.52,0,0,0-6.59-2.05A11.39,11.39,0,0,0,769.91,880a17.59,17.59,0,0,0-2.37-1.12c-5.92-2.2-12.9,6.41-14.2,13.39h1.87C756.79,886.84,762.86,880.61,768.06,882.3Z" transform="translate(-736.88 -541.41)"/><path class="cls-11" d="M829.66,880.52c-.85-3.3-5.3-5.82-10.66-5.82a14.67,14.67,0,0,0-7.12,1.73c-.33-.45-.66-.88-1-1.29-5-5.86-14.76-6.8-20.77-2a26.09,26.09,0,0,0-3.28,3.35,11.66,11.66,0,0,0-6.06-1.65c-5.54,0-10.07,3.67-10.52,8.34a17.87,17.87,0,0,0-2.18-.9c-5.2-1.69-11.27,4.54-12.85,10l25.53,0H782c21.4-.07,41.93-.18,64.24-.36C844.61,883.73,837.46,878.1,829.66,880.52Z" transform="translate(-736.88 -541.41)"/></g></g><g id="_06_Medium_Low" data-name="06 Medium Low"><g class="cls-12"><circle class="cls-13" cx="364.23" cy="215.32" r="62.25"/><path class="cls-14" d="M1041.82,775.71a62.26,62.26,0,0,0,118.59,0Z" transform="translate(-736.88 -541.41)"/><line class="cls-15" x1="390.58" y1="194.67" x2="385.4" y2="217.43"/><line class="cls-16" x1="338.53" y1="194.68" x2="326.65" y2="246.92"/><line class="cls-17" x1="366.01" y1="191.43" x2="354.8" y2="243.43"/><line class="cls-9" x1="338.31" y1="253.7" x2="344.03" y2="229.36"/><line class="cls-18" x1="344.61" y1="226.88" x2="345.91" y2="221.31"/><line class="cls-9" x1="345.91" y1="221.31" x2="351.63" y2="196.98"/><line class="cls-15" x1="384.09" y1="225.34" x2="378.92" y2="248.1"/><line class="cls-17" x1="403.78" y1="189.93" x2="392.58" y2="241.94"/><line class="cls-9" x1="365.6" y1="252.32" x2="371.31" y2="227.98"/><line class="cls-18" x1="371.89" y1="225.51" x2="373.2" y2="219.94"/><line class="cls-9" x1="373.2" y1="219.94" x2="378.92" y2="195.6"/><path class="cls-7" d="M1138.41,730.26c-.78-4.07-3.77-8.74-14.59-7.84a12.89,12.89,0,0,0-6.09,2.05,35,35,0,0,0-2.91-7.27c-5.27-7.94-15.56-9.2-21.9-2.68-2,2.08-3.75,5.72-5.61,9.34a10.45,10.45,0,0,0-5-1.25c-5.42,0-9.81,4.06-9.81,9.06a8.59,8.59,0,0,0,.13,1.45,22,22,0,0,0-3-1.63c-5.75-2.39-12.52,2.4-13.77,10,33.68,0,62.69-.2,96.36-.51C1151.13,731.09,1145.33,728.48,1138.41,730.26Z" transform="translate(-736.88 -541.41)"/><g class="cls-19"><path class="cls-20" d="M1136.73,738c-.72-4.07-3.47-8.74-13.46-7.84a11.21,11.21,0,0,0-5.61,2,37,37,0,0,0-2.69-7.27c-4.86-7.94-14.36-9.2-20.2-2.68-1.84,2.08-3.47,5.72-5.18,9.34a9.05,9.05,0,0,0-13.64,7.81,9.79,9.79,0,0,0,.11,1.45,19.67,19.67,0,0,0-2.73-1.63c-5.3-2.39-16.21.85-17.37,8.46,31.07,0,74.63,1.6,105.7,1.29C1160.6,739.05,1143.12,736.19,1136.73,738Z" transform="translate(-736.88 -541.41)"/></g></g></g><g id="_05_Low" data-name="05 Low"><circle class="cls-21" cx="211.43" cy="215.32" r="62.25"/><path class="cls-22" d="M963.38,784.66c6.91,2.11,15.32.66,21.55-1.12,4.73-1.17,12.69-1.56,20-.85a61.49,61.49,0,0,0,2.9-7.52h-119a60.87,60.87,0,0,0,2.4,6.42c6-2,12-4.34,20.16-4.69C934.3,773.66,949.49,779.89,963.38,784.66Z" transform="translate(-736.88 -541.41)"/><path class="cls-22" d="M997.4,795c-32.6-.21-65.33-.18-98.27-.12,1,1.31,2.07,2.58,3.19,3.8,9.14-.91,19.38.49,25.49,4,4.66,2.65,7.91,6.52,15,7.14,5.59.49,10.74-1.38,16-2.37,8.42-1.58,16.55-.47,22.33,2.2A62.7,62.7,0,0,0,997.4,795Z" transform="translate(-736.88 -541.41)"/><path class="cls-22" d="M948.31,819a62,62,0,0,0,13.52-1.49l-26.72.08A62.43,62.43,0,0,0,948.31,819Z" transform="translate(-736.88 -541.41)"/><path class="cls-23" d="M1009.08,770.25c-34.79.1-68.22.16-104.81.19,4.57-3.19,11.89-5.66,18.41-4.63,3.7.58,7,1.76,10.87,2,12.76.68,18.74-6.35,27.22-9.7,10.39-4,27.26-3.26,35.89,1.66,4.23,2.41,7.3,5.81,13.1,6.88.23-1.37.4-2.76.53-4.16h-.16c-7-.62-10.29-4.48-14.94-7.13-8.64-4.93-25.51-5.71-35.89-1.67-8.49,3.36-14.47,10.39-27.23,9.7-3.85-.27-7.16-1.44-10.87-2-9.42-1.48-20.51,4.34-22.57,9.06,38.82,0,73.87-.07,110.44-.16Z" transform="translate(-736.88 -541.41)"/><path class="cls-24" d="M960.77,758.14c-8.48,3.35-14.46,10.38-27.22,9.7-3.85-.27-7.17-1.45-10.87-2-6.52-1-13.84,1.44-18.41,4.63,36.59,0,70-.09,104.81-.19.26-1.18.49-2.37.68-3.57-5.8-1.07-8.87-4.47-13.1-6.88C988,754.88,971.16,754.1,960.77,758.14Z" transform="translate(-736.88 -541.41)"/><path class="cls-23" d="M963.38,790.3c6.91,1.92,15.32.6,21.55-1a69.87,69.87,0,0,1,17-1,59.66,59.66,0,0,0,2.93-5.61c-7.27-.71-15.23-.32-20,.85-6.23,1.78-14.64,3.23-21.55,1.12-13.89-4.77-29.08-11-52-7.76-8.11.35-14.13,2.7-20.16,4.69q1.15,2.64,2.53,5.15c5.22-1.6,10.65-3.22,17.63-3.49C934.3,780.3,949.49,786,963.38,790.3Z" transform="translate(-736.88 -541.41)"/><path class="cls-24" d="M997.4,795a62.69,62.69,0,0,0,4.56-6.7,69.87,69.87,0,0,0-17,1c-6.23,1.62-14.64,2.94-21.55,1-13.89-4.34-29.08-10-52-7-7,.27-12.41,1.89-17.63,3.49a62.56,62.56,0,0,0,5.37,8.14C932.07,794.82,964.8,794.79,997.4,795Z" transform="translate(-736.88 -541.41)"/><path class="cls-24" d="M965.43,741.93l37.74,0c-4.62-5.76-13.27-12.83-27.08-6C970.65,738.54,967.83,740.63,965.43,741.93Z" transform="translate(-736.88 -541.41)"/><path class="cls-24" d="M956.05,741.94c-2.77-3.26-1.83-11.07-11.07-14.39-8.42-3-22.74-2.4-35.85,1.8-6.09,1.95-12.31,9.21-20.47,12.65C911.39,742,933.45,742,956.05,741.94Z" transform="translate(-736.88 -541.41)"/><path class="cls-23" d="M935.11,817.57l26.72-.08.17,0-27,.08Z" transform="translate(-736.88 -541.41)"/><path class="cls-23" d="M958.81,807.42c-5.31,1-10.46,2.86-16,2.37-7-.62-10.29-4.49-15-7.14-6.11-3.48-16.35-4.88-25.49-4q2,2.21,4.23,4.22c8.39-.41,17.23,1,22.74,4.18,4.65,2.65,7.9,6.51,15,7.13,5.59.5,10.74-1.38,16-2.37a40.9,40.9,0,0,1,16.52.24c1.48-.77,2.93-1.58,4.34-2.46C975.36,807,967.23,805.84,958.81,807.42Z" transform="translate(-736.88 -541.41)"/><path class="cls-24" d="M960.28,811.84c-5.3,1-10.45,2.87-16,2.37-7-.62-10.3-4.48-15-7.13-5.51-3.14-14.35-4.59-22.74-4.18A62.13,62.13,0,0,0,935,817.54l27-.08a61.72,61.72,0,0,0,14.8-5.38A40.9,40.9,0,0,0,960.28,811.84Z" transform="translate(-736.88 -541.41)"/><path class="cls-23" d="M944.09,712.56c9.32-3.93,16.41-12.22,23.37-14.44l1-.3a61.69,61.69,0,0,0-7.57-2.08c-7.48,5.15-15.79,13.31-27.23,13-4.5-.15-8.36-.78-12.68-1.1a58.1,58.1,0,0,0-11.42.38,62.91,62.91,0,0,0-5.12,4.54Z" transform="translate(-736.88 -541.41)"/><path class="cls-24" d="M944.09,712.56l48,0a62.21,62.21,0,0,0-23.7-14.71l-1,.3C960.5,700.34,953.41,708.63,944.09,712.56Z" transform="translate(-736.88 -541.41)"/></g><g id="_04_Nothing" data-name="04 Nothing"><path class="cls-23" d="M739.65,775.12h119a62.34,62.34,0,0,0,2.11-9.41c-43,.19-81.29.3-123.16.35A61.76,61.76,0,0,0,739.65,775.12Z" transform="translate(-736.88 -541.41)"/><path class="cls-23" d="M737.67,755.05c3.45.71,6.54,2.14,10.14,2.47,11.89.83,17.47-2.9,25.38-7,9.68-4.92,25.41-4,33.47,2,4.33,3.23,7.37,3.11,13.93,3.86,5.22.6,10-1.68,15-2.88,10.69-2.61,20.86.82,25.72,6.87.07-1.22.11-2.44.11-3.68a62.44,62.44,0,0,0-2.89-18.8l-18.68.17-6.33.06c-30.27.29-61.18.57-85.17.61h-4.48c1.68-4.89,10.78-10.92,18.5-9.39,3,.61,5.75,1.83,8.9,2.11,10.46.71,10.2-9.35,22.31-17.11,8-5.1,23.33-4.44,29.41,1.72,7.6,7.69,8.54,10.16,12.25,14.46,8.43,9.75,7.13-9.74,15.78-8.29a62.24,62.24,0,0,0-114.06,32.66C737.18,755,737.43,755,737.67,755.05Z" transform="translate(-736.88 -541.41)"/><path class="cls-22" d="M742.23,782c5.27-3.19,14.12-4.82,24.43,0,5,2.36,9-3.22,12.66-4.27,6.71-1.94,11.39,2.3,15.25,6.51,4.37,4.76,8.55,3.79,18-1.17,12.93-6.79,25-2.56,24.21,5.94,0,.11,0,.22,0,.32-5.38-.19-15.72-.28-27.86-.32-4.93,0-10.15,0-15.46,0-17.35,0-35.61.07-47.47.1a62.27,62.27,0,0,0,112.69-14h-119A59.73,59.73,0,0,0,742.23,782Z" transform="translate(-736.88 -541.41)"/><path class="cls-7" d="M835.56,753.54c-4.95,1.2-9.75,3.48-15,2.88-6.56-.75-9.6-.63-13.93-3.86-8.06-6-23.79-6.94-33.47-2-7.91,4.08-13.49,7.81-25.38,7-3.6-.33-6.69-1.76-10.14-2.47-.24,0-.49-.07-.74-.11,0,.6,0,1.19,0,1.79,0,1.44.07,2.87.17,4.29,9.14.82,17.87,3.27,32.22-.82,27.83-8,26.33,6.46,47.21,3.23,18.29-2.83,32.93-8.64,44.73-2.21,0-.27,0-.54.07-.81C856.42,754.36,846.25,750.93,835.56,753.54Z" transform="translate(-736.88 -541.41)"/><path class="cls-25" d="M816.48,763.43c-20.88,3.23-19.38-11.18-47.21-3.23-14.35,4.09-23.08,1.64-32.22.82.11,1.7.28,3.38.53,5,41.87,0,80.11-.16,123.16-.35.21-1.48.37-3,.47-4.49C849.41,754.79,834.77,760.6,816.48,763.43Z" transform="translate(-736.88 -541.41)"/><path class="cls-7" d="M763.47,786.39c5.32,2.36,9.58-3.23,13.42-4.28,7.1-1.94,12.06,2.3,16.15,6.51.12.13.24.23.37.35,5.31,0,10.53,0,15.46,0,1-.46,2.07-1,3.21-1.53,11-5.49,21.47-3.79,24.67,1.53.76-8.5-11.28-12.73-24.21-5.94-9.42,5-13.6,5.93-18,1.17-3.86-4.21-8.54-8.45-15.25-6.51-3.62,1-7.65,6.63-12.66,4.27-10.31-4.84-19.16-3.21-24.43,0,.32.73.66,1.46,1,2.18C748.65,782.77,755.66,782.92,763.47,786.39Z" transform="translate(-736.88 -541.41)"/><path class="cls-25" d="M793,788.62c-4.09-4.21-9-8.45-16.15-6.51-3.84,1-8.1,6.64-13.42,4.28-7.81-3.47-14.82-3.62-20.23-2.25.83,1.69,1.72,3.33,2.7,4.93,11.86,0,30.12-.1,47.47-.1C793.28,788.85,793.16,788.75,793,788.62Z" transform="translate(-736.88 -541.41)"/><path class="cls-25" d="M812.08,787.46c-1.14.56-2.2,1.07-3.21,1.53,12.14,0,22.48.13,27.86.32,0-.1,0-.21,0-.32C833.55,783.67,823.12,782,812.08,787.46Z" transform="translate(-736.88 -541.41)"/><path class="cls-7" d="M835.21,730.57c-3.71-4.3-4.65-6.77-12.25-14.46-6.08-6.16-21.46-6.82-29.41-1.72-12.11,7.76-11.85,17.82-22.31,17.11-3.15-.28-5.87-1.5-8.9-2.11-7.72-1.53-16.82,4.5-18.5,9.39h4.48c3.49-2,7.78-3.19,11.72-2.41,3,.61,5.75,1.82,8.91,2.11,10.46.71,10.19-9.35,22.31-17.11,8-5.1,23.32-4.45,29.41,1.72,7.6,7.69,8.54,10.16,12.25,14.45.2.24.38.43.57.63l6.33-.06c2.31-3.66,4-10.49,9.86-8.61q3.23,1,6.32,1.9a62,62,0,0,0-5-9.11C842.34,720.83,843.64,740.32,835.21,730.57Z" transform="translate(-736.88 -541.41)"/><path class="cls-25" d="M839.82,738.1l18.68-.17a61.24,61.24,0,0,0-2.5-6.54q-3.09-.87-6.32-1.9C843.86,727.61,842.13,734.44,839.82,738.1Z" transform="translate(-736.88 -541.41)"/><path class="cls-25" d="M820.67,723.08c-6.09-6.17-21.46-6.82-29.41-1.72-12.12,7.76-11.85,17.82-22.31,17.11-3.16-.29-5.87-1.5-8.91-2.11-3.94-.78-8.23.41-11.72,2.41,24,0,54.9-.32,85.17-.61-.19-.2-.37-.39-.57-.63C829.21,733.24,828.27,730.77,820.67,723.08Z" transform="translate(-736.88 -541.41)"/></g><g id="_03_OK" data-name="03 OK"><g id="CLoudy_Sunny" data-name="CLoudy Sunny"><path class="cls-22" d="M1134.6,559.42a62.26,62.26,0,0,0-103.39,26.23Z" transform="translate(-736.88 -541.41)"/><path class="cls-26" d="M1028.55,603.66a62.25,62.25,0,0,0,121.3,19.72c-21.32.15-41.7.25-62.51.32l0,.5-.26-.49c-14.59,0-29.39.08-44.89.1h-4.3c1.74-9,11.13-21.74,19.1-18.9,2.48.89,4.75,2.47,7.21,3.36l2.24-2.33,1.84,2.93a11.16,11.16,0,0,0,4.23-1.09A12.29,12.29,0,0,1,1089.42,590c8.8-7.53,22.88-6,30.13,3.37,3.93,5.09,6.68,14,12.64,15.21,4.73.95,9.09-3.86,13.57-5.77a15.61,15.61,0,0,1,7.25-1.24,62,62,0,0,0-18.41-42.17l-103.39,26.23A62.27,62.27,0,0,0,1028.55,603.66Zm63-27.39-.82,9.87-5-2Zm-15.19-1.59,5,9.52-5.48.95Zm-4.89,13.08-4.45,3.62-4.72-8.28Zm-5.28,9.44-1.12,5.62-8.91-3.38Z" transform="translate(-736.88 -541.41)"/><polygon class="cls-27" points="339.49 33.27 338.98 43.74 344.46 42.79 339.49 33.27"/><polygon class="cls-27" points="334.6 46.35 325.44 41.69 330.16 49.98 334.6 46.35"/><polygon class="cls-27" points="354.69 34.86 348.82 42.76 353.86 44.73 354.69 34.86"/><path class="cls-27" d="M1087.32,624.2l0-.5h-.28Z" transform="translate(-736.88 -541.41)"/><path class="cls-27" d="M1068.26,608.87l-1.84-2.93-2.24,2.33a8.76,8.76,0,0,0,4.08.6Z" transform="translate(-736.88 -541.41)"/><polygon class="cls-27" points="329.33 55.79 319.29 58.04 328.21 61.42 329.33 55.79"/><path class="cls-28" d="M1089.19,590.2l.23-.18a12.29,12.29,0,0,0-16.93,17.76C1079.26,604.56,1083.58,595.23,1089.19,590.2Z" transform="translate(-736.88 -541.41)"/><path class="cls-7" d="M1145.76,602.83c-4.48,1.91-8.84,6.72-13.57,5.77-6-1.19-8.71-10.12-12.64-15.21-7.25-9.36-21.33-10.9-30.13-3.37l-.23.18c-5.61,5-9.93,14.36-16.7,17.58a11.16,11.16,0,0,1-4.23,1.09,8.76,8.76,0,0,1-4.08-.6c-2.46-.89-4.73-2.47-7.21-3.36-8-2.84-17.36,9.85-19.1,18.9h4.3c4.12-6,10.24-10.74,15.72-8.89,3.32,1.12,6.29,3.37,9.74,3.9,11.42,1.31,16.77-12.18,24.37-18.61,9.29-7.75,24.4-6.25,32.13,3.19,4.17,5.09,7.08,14,13.38,15.21,5,.95,9.62-3.86,14.37-5.77.17-.07.35-.12.53-.18a63.52,63.52,0,0,0,.65-9c0-.69,0-1.38,0-2.07A15.61,15.61,0,0,0,1145.76,602.83Z" transform="translate(-736.88 -541.41)"/><path class="cls-29" d="M1137.51,618.6c-6.3-1.19-9.21-10.12-13.38-15.21-7.73-9.44-22.84-10.94-32.13-3.19-7.6,6.43-13,19.92-24.37,18.61-3.45-.53-6.42-2.78-9.74-3.9-5.48-1.85-11.6,2.88-15.72,8.89h0c15.5,0,30.3-.06,44.89-.1h.28c20.81-.07,41.19-.17,62.51-.32a61.69,61.69,0,0,0,2.56-10.73c-.18.06-.36.11-.53.18C1147.13,614.74,1142.52,619.55,1137.51,618.6Z" transform="translate(-736.88 -541.41)"/></g></g><g id="_02_High" data-name="02 High"><circle class="cls-3" cx="213.72" cy="62.25" r="62.25"/><g class="cls-30"><path class="cls-31" d="M950.61,665.91a62.27,62.27,0,0,0,60.88-75.26l-120.6,30.6A62.27,62.27,0,0,0,950.61,665.91Z" transform="translate(-736.88 -541.41)"/><polygon class="cls-27" points="214.92 37.8 207.41 23.42 206.64 39.23 214.92 37.8"/><polygon class="cls-27" points="200.03 43.17 186.17 36.14 193.31 48.66 200.03 43.17"/><polygon class="cls-27" points="238.99 51.01 249.88 39.67 234.52 43.89 238.99 51.01"/><polygon class="cls-27" points="229.12 40.73 230.37 25.82 221.5 37.75 229.12 40.73"/><polygon class="cls-27" points="216.43 83.86 223.94 98.24 224.71 82.43 216.43 83.86"/><polygon class="cls-27" points="231.33 77.91 245.18 84.94 237.47 71.85 231.33 77.91"/><polygon class="cls-27" points="192.37 70.65 181.47 81.99 196.84 77.77 192.37 70.65"/><polygon class="cls-27" points="202.23 80.93 200.98 95.84 209.85 83.91 202.23 80.93"/><polygon class="cls-27" points="192.06 57.44 176.9 60.83 190.37 65.94 192.06 57.44"/><polygon class="cls-27" points="238.31 64.3 253.47 60.9 239.19 55.72 238.31 64.3"/><circle class="cls-28" cx="215.18" cy="60.83" r="18.58"/></g></g><g id="_01_Too_High" data-name="01 Too High"><circle class="cls-28" cx="62.25" cy="62.25" r="62.25"/><path class="cls-28" d="M775.86,644.72l9.22-2.34-7.87-.06C776.75,643.11,776.31,643.92,775.86,644.72Z" transform="translate(-736.88 -541.41)"/><path class="cls-28" d="M835.16,588.79l-4.69.82.41-8.5c-3.31,2.54-6.56,5.17-9.72,7.91l5.56,2.82L822.91,595l-2.83-5a207.82,207.82,0,0,0-34.53,39c4,1.49,8.31-1.07,11.68-4.07,6-4.63,19.87-3.41,23.39,8.4l37.4-9.49A62.24,62.24,0,0,0,850.15,568a207.1,207.1,0,0,0-19.08,13Zm-13,11.13-1,4.82-7.64-2.89Zm-6,13.91,6.17-6.42,2.53,4Zm11,7.85.71-8.44,4.32,1.68Zm13,1.36L836,614.89l4.69-.81Zm4.19-11.52,3.48-3.43,4.37,7.42Zm3.95-7.71.5-4.86,8.1,2.94Zm6.56-14-6.17,6.43-2.53-4Zm-18.21,22.42a10.53,10.53,0,1,1,9-11.88A10.52,10.52,0,0,1,836.76,612.27ZM843.92,582l-.71,8.45-4.32-1.69Z" transform="translate(-736.88 -541.41)"/><path class="cls-28" d="M798.5,541.42a62.25,62.25,0,0,0-61.62,62.24c0,2,.11,3.94.29,5.88A259.33,259.33,0,0,1,798.5,541.42Z" transform="translate(-736.88 -541.41)"/><path class="cls-32" d="M821.22,643.12c-12-.44-24.07-.65-36.14-.74l-9.22,2.34q-3.66,6.56-6.85,13.42a62.27,62.27,0,0,0,89-34.27l-37.4,9.49A23.57,23.57,0,0,1,821.22,643.12Z" transform="translate(-736.88 -541.41)"/><path class="cls-33" d="M737.17,609.54a63.11,63.11,0,0,0,1.25,7.86,34.32,34.32,0,0,1,5.91-5.12,265.17,265.17,0,0,1,66.77-69.71,62,62,0,0,0-12-1.16h-.64A259.33,259.33,0,0,0,737.17,609.54Z" transform="translate(-736.88 -541.41)"/><path class="cls-34" d="M744.33,612.28a14,14,0,0,1,3.84-1.76,24.46,24.46,0,0,1,8.07-.9,259.29,259.29,0,0,1,63.25-64.79,62.07,62.07,0,0,0-8.39-2.26A265.17,265.17,0,0,0,744.33,612.28Z" transform="translate(-736.88 -541.41)"/><path class="cls-35" d="M756.24,609.62a23.17,23.17,0,0,1,8.51,2.26A254.23,254.23,0,0,1,828.93,549a61.31,61.31,0,0,0-9.44-4.16A259.29,259.29,0,0,0,756.24,609.62Z" transform="translate(-736.88 -541.41)"/><path class="cls-36" d="M764.75,611.88a36.15,36.15,0,0,1,7.41,4.84,242.58,242.58,0,0,1,65.22-62.16,61.05,61.05,0,0,0-8.45-5.57A254.23,254.23,0,0,0,764.75,611.88Z" transform="translate(-736.88 -541.41)"/><path class="cls-36" d="M750.38,642.35q1.7,2.11,3.55,4.08c.71-1.37,1.43-2.75,2.17-4.11Z" transform="translate(-736.88 -541.41)"/><path class="cls-37" d="M767,642.31H756.1c-.74,1.36-1.46,2.74-2.17,4.11a61.78,61.78,0,0,0,7.2,6.52Q763.94,647.55,767,642.31Z" transform="translate(-736.88 -541.41)"/><path class="cls-37" d="M772.16,616.72a84.44,84.44,0,0,1,7.08,6.73,238.62,238.62,0,0,1,65.62-62,61.53,61.53,0,0,0-7.48-6.86A242.58,242.58,0,0,0,772.16,616.72Z" transform="translate(-736.88 -541.41)"/><path class="cls-38" d="M779.24,623.45c1.22,1.28,2.42,2.57,3.61,3.84a7.8,7.8,0,0,0,2.7,1.74,207.82,207.82,0,0,1,34.53-39l-1.21-2.13,2.29,1.17c3.16-2.74,6.41-5.37,9.72-7.91l0-.47.16.32a207.1,207.1,0,0,1,19.08-13,63.08,63.08,0,0,0-5.29-6.57A238.62,238.62,0,0,0,779.24,623.45Z" transform="translate(-736.88 -541.41)"/><path class="cls-38" d="M777.21,642.32q-5.1,0-10.22,0-3.06,5.24-5.86,10.64a61.25,61.25,0,0,0,7.88,5.19q3.18-6.85,6.85-13.42C776.31,643.92,776.75,643.11,777.21,642.32Z" transform="translate(-736.88 -541.41)"/><path class="cls-7" d="M767,642.31q5.12,0,10.22,0l7.87.06c12.07.09,24.12.3,36.14.74a23.57,23.57,0,0,0-.6-9.76c-3.52-11.81-17.38-13-23.39-8.4-3.37,3-7.71,5.56-11.68,4.07a7.8,7.8,0,0,1-2.7-1.74c-1.19-1.27-2.39-2.56-3.61-3.84a84.44,84.44,0,0,0-7.08-6.73,36.15,36.15,0,0,0-7.41-4.84,23.17,23.17,0,0,0-8.51-2.26,24.46,24.46,0,0,0-8.07.9,14,14,0,0,0-3.84,1.76,34.32,34.32,0,0,0-5.91,5.12,62.13,62.13,0,0,0,12,25l5.72,0Z" transform="translate(-736.88 -541.41)"/><polygon class="cls-39" points="98.28 47.39 94.19 39.56 94.02 39.24 94 39.71 93.58 48.2 98.28 47.39"/><polygon class="cls-39" points="89.84 50.43 84.28 47.61 81.99 46.45 83.2 48.57 86.03 53.54 89.84 50.43"/><polygon class="cls-39" points="118.09 48.45 109.38 50.84 111.91 54.87 118.09 48.45"/><polygon class="cls-39" points="107.03 40.6 102.01 47.36 106.32 49.05 107.03 40.6"/><polygon class="cls-39" points="103.39 81.64 103.83 72.68 99.13 73.49 103.39 81.64"/><polygon class="cls-39" points="107.58 70.12 115.42 74.1 111.05 66.68 107.58 70.12"/><polygon class="cls-39" points="79.32 72.43 88.03 70.04 85.5 66.01 79.32 72.43"/><polygon class="cls-39" points="90.38 80.28 95.41 73.52 91.09 71.83 90.38 80.28"/><polygon class="cls-39" points="85.32 58.52 76.73 60.44 84.36 63.34 85.32 58.52"/><polygon class="cls-39" points="111.53 62.4 120.12 60.48 112.03 57.54 111.53 62.4"/><circle class="cls-39" cx="835.31" cy="601.84" r="10.53" transform="translate(-595.82 820.69) rotate(-83.37)"/></g></svg>