<svg xmlns="http://www.w3.org/2000/svg" width="90" height="90" viewBox="0 0 90 90">
  <g id="Group_390" data-name="Group 390" transform="translate(-240 -268)">
    <g id="Group_378" data-name="Group 378" transform="translate(110.078 -117.919)">
      <g id="Group_377" data-name="Group 377" transform="translate(132 388)">
        <g id="Layer_2" data-name="Layer 2" transform="translate(0 0)">
          <g id="_03_OK" data-name="03 OK" transform="translate(0 0)">
            <g id="CLoudy_Sunny" data-name="CLoudy Sunny">
              <path id="Path_441" data-name="Path 441" d="M74.332,12.492A43.174,43.174,0,0,0,2.66,30.7Z" transform="translate(-0.815 -0.025)" fill="#dbf0f4"/>
              <path id="Path_442" data-name="Path 442" d="M0,48.69a43.174,43.174,0,0,0,84.128,13.7c-14.787.1-28.921.173-43.354.222v.347l-.18-.347c-10.119,0-20.384.055-31.134.069h-3C7.671,56.4,14.183,47.6,19.711,49.578c1.72.61,3.294,1.713,5,2.323l1.554-1.609,1.276,2.032a7.879,7.879,0,0,0,2.934-.763A8.524,8.524,0,0,1,42.217,39.23a14.731,14.731,0,0,1,20.9,2.344c2.726,3.523,4.633,9.71,8.767,10.549,3.281.652,6.3-2.684,9.412-4a10.646,10.646,0,0,1,5.028-.86A43.035,43.035,0,0,0,73.517,18L1.845,36.206A42.91,42.91,0,0,0,0,48.69Zm43.694-19-.576,6.845-3.468-1.387Zm-10.521-1.1,3.468,6.6-3.8.694Zm-3.391,9.072-3.086,2.531-3.274-5.75Zm-3.662,6.547-.777,3.9-6.18-2.372Z" transform="translate(0 -5.533)" fill="#92ebe3"/>
              <path id="Path_443" data-name="Path 443" d="M47.671,33.27l-.361,7.262,3.808-.659Z" transform="translate(-14.498 -10.213)" fill="#fdf4aa"/>
              <path id="Path_444" data-name="Path 444" d="M40.13,44.922,33.77,41.69l3.274,5.75Z" transform="translate(-10.349 -12.793)" fill="#fdf4aa"/>
              <path id="Path_445" data-name="Path 445" d="M61.221,34.86,57.15,40.339l3.5,1.366Z" transform="translate(-17.513 -10.7)" fill="#fdf4aa"/>
              <path id="Path_446" data-name="Path 446" d="M58.684,82.647V82.3H58.49Z" transform="translate(-17.924 -25.238)" fill="#fdf4aa"/>
              <path id="Path_447" data-name="Path 447" d="M38.46,66.572,37.184,64.54,35.63,66.149a7.323,7.323,0,0,0,1.387.375A7.954,7.954,0,0,0,38.46,66.572Z" transform="translate(-10.919 -19.795)" fill="#fdf4aa"/>
              <path id="Path_448" data-name="Path 448" d="M34.586,55.79,27.63,57.35l6.18,2.344Z" transform="translate(-8.467 -17.114)" fill="#fdf4aa"/>
              <path id="Path_449" data-name="Path 449" d="M54.512,47.851c.049-.049.1-.083.16-.132A8.524,8.524,0,0,0,42.93,60.037C47.625,57.811,50.6,51.333,54.512,47.851Z" transform="translate(-12.455 -14.023)" fill="#fff5aa"/>
              <path id="Path_450" data-name="Path 450" d="M84.141,56.041c-3.107,1.318-6.131,4.654-9.412,4-4.134-.832-6.041-7.026-8.767-10.542a14.743,14.743,0,0,0-20.9-2.344c-.055.049-.111.083-.16.132-3.891,3.468-6.887,9.959-11.582,12.186a7.837,7.837,0,0,1-4.39.694,7.324,7.324,0,0,1-1.387-.375c-1.706-.61-3.281-1.713-5-2.323C17,55.494,10.507,64.295,9.3,70.571h2.982c2.857-4.161,7.1-7.449,10.9-6.166,2.3.77,4.362,2.337,6.748,2.7,7.941.922,11.652-8.427,16.923-12.886C53.3,48.842,63.779,49.883,69.14,56.43c2.892,3.523,4.9,9.71,9.28,10.549,3.468.652,6.672-2.684,9.966-4l.361-.132A42.911,42.911,0,0,0,89.2,56.6c0-.479,0-.95-.035-1.429a10.646,10.646,0,0,0-5.028.867Z" transform="translate(-2.85 -13.454)" fill="#fffcef"/>
              <path id="Path_451" data-name="Path 451" d="M79.771,70.041c-4.4-.832-6.415-7.026-9.308-10.542C65.1,52.952,54.623,51.912,48.18,57.287c-5.271,4.46-9.016,13.809-16.909,12.9-2.386-.361-4.446-1.928-6.748-2.7-3.8-1.283-8.045,1.991-10.9,6.166h0c10.75,0,21.015-.035,31.134-.069h.194c14.433-.055,28.581-.132,43.354-.215a42.854,42.854,0,0,0,1.769-7.449l-.361.132C86.415,67.357,83.239,70.693,79.771,70.041Z" transform="translate(-4.174 -16.516)" fill="#92d0c7"/>
            </g>
          </g>
        </g>
      </g>
    </g>
    <g id="Group_376" data-name="Group 376" transform="translate(70 106)">
      <g id="Ellipse_96" data-name="Ellipse 96" transform="translate(170 162)" fill="none" stroke="#3a3d7d" stroke-width="2">
        <circle cx="45" cy="45" r="45" stroke="none"/>
        <circle cx="45" cy="45" r="44" fill="none"/>
      </g>
    </g>
  </g>
</svg>
