<svg xmlns="http://www.w3.org/2000/svg" width="90" height="90" viewBox="0 0 90 90">
  <g id="Group_392" data-name="Group 392" transform="translate(-143 -365)">
    <g id="Layer_2" data-name="Layer 2" transform="translate(144.409 366.41)">
      <g id="_05_Low" data-name="05 Low">
        <circle id="Ellipse_112" data-name="Ellipse 112" cx="43.841" cy="43.841" r="43.841" fill="#b3bfc6"/>
        <path id="Path_463" data-name="Path 463" d="M55.277,87.374c4.867,1.493,10.789.465,15.184-.789a47.425,47.425,0,0,1,14.085-.592,42.966,42.966,0,0,0,2.042-5.3H2.78a43.584,43.584,0,0,0,1.69,4.528c4.226-1.409,8.451-3.057,14.191-3.3C34.8,79.634,45.494,84.021,55.277,87.374Z" transform="translate(-0.822 -23.862)" fill="#dbf0f4"/>
        <path id="Path_464" data-name="Path 464" d="M82.282,100.473c-22.959-.148-46.01-.12-69.2-.077.7.916,1.458,1.81,2.24,2.669,6.444-.634,13.649.345,17.959,2.817,3.275,1.866,5.564,4.592,10.522,5.029,3.944.345,7.571-.979,11.268-1.676A26.869,26.869,0,0,1,70.8,110.784a43.989,43.989,0,0,0,11.48-10.311Z" transform="translate(-3.868 -29.68)" fill="#dbf0f4"/>
        <path id="Path_465" data-name="Path 465" d="M58.346,124.063A44.242,44.242,0,0,0,67.875,123l-18.825.049A43.968,43.968,0,0,0,58.346,124.063Z" transform="translate(-14.505 -36.374)" fill="#dbf0f4"/>
        <path id="Path_466" data-name="Path 466" d="M90.343,70.117c-24.5.077-48.046.12-73.815.134A19.188,19.188,0,0,1,29.494,66.99c2.613.416,4.93,1.24,7.655,1.409,8.987.486,13.2-4.472,19.17-6.831,7.317-2.817,19.2-2.3,25.283,1.176,2.972,1.69,5.141,4.085,9.226,4.838.155-.965.275-1.937.366-2.923H91.09c-4.93-.437-7.254-3.162-10.564-5.029-6.029-3.437-17.917-4-25.227-1.155-5.979,2.359-10.184,7.31-19.184,6.831-2.711-.19-5.05-1.021-7.655-1.409-6.62-1.063-14.438,3.035-15.888,6.381,27.34,0,52.025-.07,77.773-.141Z" transform="translate(-3.717 -16.754)" fill="#e8eff2"/>
        <path id="Path_467" data-name="Path 467" d="M58,62.894c-5.972,2.352-10.184,7.317-19.17,6.831-2.711-.19-5.043-1.014-7.655-1.409A19.265,19.265,0,0,0,18.21,71.578c25.769,0,49.3-.056,73.815-.134.183-.831.352-1.662.486-2.514-4.085-.754-6.254-3.148-9.226-4.838C77.221,60.6,65.319,60.049,58,62.894Z" transform="translate(-5.385 -18.06)" fill="#7e8f9a"/>
        <path id="Path_468" data-name="Path 468" d="M55.963,91.591c4.867,1.352,10.789.423,15.184-.7a48.821,48.821,0,0,1,11.973-.7,43.822,43.822,0,0,0,2.064-3.951,47.559,47.559,0,0,0-14.085.592C66.7,88.077,60.78,89.1,55.913,87.612c-9.782-3.352-20.473-7.747-36.622-5.458-5.712.246-9.951,1.9-14.191,3.3q.817,1.859,1.782,3.627a46.306,46.306,0,0,1,12.409-2.465C35.489,84.555,46.18,88.542,55.963,91.591Z" transform="translate(-1.508 -24.108)" fill="#e8eff2"/>
        <path id="Path_469" data-name="Path 469" d="M80.7,96.815A43.047,43.047,0,0,0,83.908,92.1a48.82,48.82,0,0,0-11.973.7c-4.395,1.141-10.318,2.071-15.184.7-9.782-3.049-20.473-7.043-36.622-4.93A46.136,46.136,0,0,0,7.72,91.047,43.821,43.821,0,0,0,11.5,96.779C34.68,96.695,57.738,96.667,80.7,96.815Z" transform="translate(-2.283 -26.021)" fill="#7e8f9a"/>
        <path id="Path_470" data-name="Path 470" d="M79.37,44.839l26.579-.042C102.7,40.74,96.6,35.768,86.878,40.571,83.046,42.445,81.06,43.924,79.37,44.839Z" transform="translate(-23.472 -11.414)" fill="#7e8f9a"/>
        <path id="Path_471" data-name="Path 471" d="M50.071,42.66c-1.951-2.3-1.282-7.8-7.8-10.135-5.93-2.113-16.008-1.69-25.241,1.268C12.745,35.167,8.35,40.273,2.61,42.7,18.611,42.7,34.154,42.681,50.071,42.66Z" transform="translate(-0.772 -9.228)" fill="#7e8f9a"/>
        <path id="Path_472" data-name="Path 472" d="M49.017,123.063,67.843,123h.113l-19.015.063Z" transform="translate(-14.473 -36.374)" fill="#e8eff2"/>
        <path id="Path_473" data-name="Path 473" d="M56.059,110.273c-3.733.7-7.36,2.021-11.268,1.676-4.93-.437-7.247-3.162-10.522-5.029-4.31-2.458-11.515-3.437-17.959-2.817.944,1.042,1.944,2.028,2.979,2.972,5.909-.282,12.142.7,16.015,2.944,3.282,1.866,5.571,4.592,10.564,5.029,3.937.345,7.564-.972,11.3-1.669a28.777,28.777,0,0,1,11.628.162c1.042-.535,2.071-1.113,3.064-1.733A27.3,27.3,0,0,0,56.059,110.273Z" transform="translate(-4.823 -30.733)" fill="#e8eff2"/>
        <path id="Path_474" data-name="Path 474" d="M58.323,114.7c-3.74.7-7.367,2.014-11.3,1.669-4.93-.437-7.247-3.162-10.564-5.029-3.874-2.211-10.106-3.226-16.015-2.944a43.665,43.665,0,0,0,20.114,10.318l19.015-.063a43.468,43.468,0,0,0,10.423-3.789A28.777,28.777,0,0,0,58.323,114.7Z" transform="translate(-6.045 -32.043)" fill="#7e8f9a"/>
        <path id="Path_475" data-name="Path 475" d="M46.289,13.116C52.874,10.341,57.875,4.51,62.776,2.939l.7-.2A43.448,43.448,0,0,0,58.149,1.27c-5.268,3.627-11.12,9.367-19.177,9.156-3.162-.106-5.888-.556-8.93-.782a41.954,41.954,0,0,0-8.036.268,44.54,44.54,0,0,0-3.606,3.2Z" transform="translate(-5.441 -0.376)" fill="#e8eff2"/>
        <path id="Path_476" data-name="Path 476" d="M58,13.731H91.84A43.792,43.792,0,0,0,75.17,3.35l-.7.2C69.585,5.125,64.585,10.956,58,13.731Z" transform="translate(-17.152 -0.991)" fill="#7e8f9a"/>
      </g>
    </g>
    <g id="Group_380" data-name="Group 380" transform="translate(-27 203)">
      <g id="Ellipse_96" data-name="Ellipse 96" transform="translate(170 162)" fill="none" stroke="#3a3d7d" stroke-width="2">
        <circle cx="45" cy="45" r="45" stroke="none"/>
        <circle cx="45" cy="45" r="44" fill="none"/>
      </g>
    </g>
  </g>
</svg>
