<svg xmlns="http://www.w3.org/2000/svg" width="90" height="90" viewBox="0 0 90 90">
  <g id="Group_393" data-name="Group 393" transform="translate(-46 -365)">
    <g id="Layer_2" data-name="Layer 2" transform="translate(47.405 366.568)">
      <g id="_04_Nothing" data-name="04 Nothing" transform="translate(0.05 -0.104)">
        <path id="Path_452" data-name="Path 452" d="M2.155,77.857H85.876a43.964,43.964,0,0,0,1.492-6.627c-30.252.141-57.2.211-86.648.246a43.731,43.731,0,0,0,1.435,6.381Z" transform="translate(-0.249 -21.044)" fill="#e8eff2"/>
        <path id="Path_453" data-name="Path 453" d="M.571,42.583c2.427.5,4.6,1.506,7.127,1.738,8.372.591,12.291-2.04,17.856-4.925C32.371,35.941,43.437,36.581,49.1,40.8c3.053,2.272,5.185,2.181,9.807,2.716,3.665.422,7.035-1.182,10.553-2.033,7.521-1.836,14.683.577,18.1,4.84.049-.858.084-1.724.084-2.6A43.746,43.746,0,0,0,85.6,30.5l-13.135.127-4.453.042c-21.3.2-43.043.394-59.92.429H4.94c1.182-3.433,7.577-7.676,13.008-6.6,2.111.422,4.045,1.28,6.269,1.477,7.359.5,7.169-6.571,15.7-12.038,5.628-3.588,16.407-3.124,20.691,1.21,5.347,5.417,6.008,7.155,8.618,10.173,5.931,6.867,5.009-6.845,11.1-5.825A43.788,43.788,0,0,0,.05,42.512C.219,42.533.395,42.547.571,42.583Z" transform="translate(-0.05 0.104)" fill="#e8eff2"/>
        <path id="Path_454" data-name="Path 454" d="M4.575,85.462c3.715-2.244,9.934-3.4,17.187,0,3.518,1.66,6.367-2.265,8.914-3,4.714-1.372,8.006,1.611,10.729,4.58,3.074,3.342,6.015,2.659,12.664-.823,9.1-4.784,17.588-1.8,17.033,4.179v.225c-3.785-.134-11.06-.2-19.6-.232H40.617c-12.2,0-25.046.049-33.4.077A43.809,43.809,0,0,0,86.467,80.65H2.76a45.4,45.4,0,0,0,1.815,4.812Z" transform="translate(-0.853 -23.836)" fill="#dbf0f4"/>
        <path id="Path_455" data-name="Path 455" d="M69.433,57.238c-3.476.851-6.86,2.455-10.553,2.033-4.622-.535-6.754-.443-9.807-2.716-5.628-4.221-16.73-4.883-23.547-1.407-5.565,2.87-9.484,5.5-17.856,4.925C5.172,59.806,3,58.8.571,58.3a4.212,4.212,0,0,1-.521-.07v1.252c0,1.02.049,2.026.113,3.025,6.437.577,12.579,2.3,22.675-.584,19.579-5.586,18.524,4.552,33.207,2.272,12.868-1.991,23.175-6.072,31.476-1.555a2.53,2.53,0,0,1,.042-.563C84.116,57.815,76.954,55.4,69.433,57.238Z" transform="translate(-0.05 -15.614)" fill="#fffcef"/>
        <path id="Path_456" data-name="Path 456" d="M56.042,67.325C41.359,69.6,42.415,59.466,22.835,65.052,12.711,67.9,6.6,66.178.16,65.6c.084,1.2.2,2.378.38,3.518,29.45,0,56.361-.106,86.648-.246.148-1.041.253-2.111.331-3.159C79.217,61.218,68.91,65.3,56.042,67.325Z" transform="translate(-0.083 -18.707)" fill="#abd4dc"/>
        <path id="Path_457" data-name="Path 457" d="M20.281,89.189c3.736,1.66,6.74-2.265,9.441-3,5-1.365,8.478,1.618,11.362,4.58l.253.239H52.222c.7-.317,1.449-.7,2.251-1.076,7.739-3.855,15.112-2.659,17.363,1.083.528-5.98-7.936-8.963-17.033-4.179C48.177,90.35,45.236,91,42.14,87.655c-2.723-2.969-6.015-5.952-10.729-4.58-2.547.739-5.382,4.664-8.914,3-7.253-3.412-13.473-2.258-17.187,0,.232.514.464,1.027.7,1.527A21.88,21.88,0,0,1,20.281,89.189Z" transform="translate(-1.609 -24.454)" fill="#fffcef"/>
        <path id="Path_458" data-name="Path 458" d="M41.393,92.077c-2.885-2.962-6.332-5.945-11.362-4.58-2.7.7-5.706,4.664-9.441,3A21.812,21.812,0,0,0,6.35,88.918q.879,1.787,1.9,3.475c8.351,0,21.2-.07,33.4-.077Z" transform="translate(-1.918 -25.765)" fill="#abd4dc"/>
        <path id="Path_459" data-name="Path 459" d="M74.241,92c-.8.4-1.548.76-2.251,1.076,8.541,0,15.816.1,19.6.232V93.08C89.353,89.323,82.015,88.127,74.241,92Z" transform="translate(-21.377 -26.494)" fill="#abd4dc"/>
        <path id="Path_460" data-name="Path 460" d="M71.254,30.282c-2.61-3.018-3.271-4.756-8.618-10.173-4.278-4.334-15.1-4.8-20.691-1.21-8.527,5.466-8.337,12.537-15.7,12.023-2.223-.2-4.13-1.055-6.269-1.477C14.549,28.383,8.154,32.625,7,36.058h3.152a12.3,12.3,0,0,1,8.245-1.7c2.111.422,4.045,1.28,6.269,1.477,7.352.5,7.169-6.571,15.689-12.038,5.628-3.588,16.414-3.124,20.7,1.21,5.347,5.417,6.008,7.155,8.611,10.173.141.162.274.3.408.443l4.453-.042c1.618-2.582,2.814-7.387,6.937-6.065,1.513.492,2.99.936,4.446,1.344a43.513,43.513,0,0,0-3.518-6.409C76.263,23.437,77.185,37.149,71.254,30.282Z" transform="translate(-2.11 -4.819)" fill="#fffcef"/>
        <path id="Path_461" data-name="Path 461" d="M102.94,40.98l13.135-.127a43.519,43.519,0,0,0-1.752-4.594c-1.456-.408-2.934-.851-4.446-1.344C105.8,33.593,104.558,38.426,102.94,40.98Z" transform="translate(-30.553 -10.211)" fill="#abd4dc"/>
        <path id="Path_462" data-name="Path 462" d="M62.341,27.079c-4.285-4.334-15.1-4.8-20.7-1.21-8.52,5.466-8.337,12.537-15.689,12.045-2.223-.2-4.137-1.055-6.269-1.477a12.3,12.3,0,0,0-8.245,1.7c16.885,0,38.617-.232,59.92-.429-.134-.141-.267-.281-.408-.443C68.349,34.234,67.688,32.5,62.341,27.079Z" transform="translate(-3.427 -6.885)" fill="#abd4dc"/>
      </g>
    </g>
    <g id="Group_379" data-name="Group 379" transform="translate(-124 203)">
      <g id="Ellipse_96" data-name="Ellipse 96" transform="translate(170 162)" fill="none" stroke="#3a3d7d" stroke-width="2">
        <circle cx="45" cy="45" r="45" stroke="none"/>
        <circle cx="45" cy="45" r="44" fill="none"/>
      </g>
    </g>
  </g>
</svg>
