<svg xmlns="http://www.w3.org/2000/svg" width="90" height="90" viewBox="0 0 90 90">
  <g id="Group_388" data-name="Group 388" transform="translate(-46 -268)">
    <g id="Layer_2" data-name="Layer 2" transform="translate(46 268)">
      <g id="_01_Too_High" data-name="01 Too High" transform="translate(0 0)">
        <ellipse id="Ellipse_107" data-name="Ellipse 107" cx="44.996" cy="45" rx="44.996" ry="45" transform="translate(0 0)" fill="#fff5aa"/>
        <path id="Path_406" data-name="Path 406" d="M39,102.644l6.614-1.661c-1.891,0-3.774,0-5.665-.043Z" transform="translate(-10.797 -27.877)" fill="#fff5aa"/>
        <path id="Path_407" data-name="Path 407" d="M84.333,41.54l-3.379.582.3-6.1c-2.387,1.826-4.723,3.717-6.987,5.679l4,2.027-2.76,2.236-2.034-3.594a149.217,149.217,0,0,0-24.8,28.1c2.875,1.071,5.967-.769,8.4-2.933,4.313-3.321,14.277-2.444,16.814,6.039l26.886-6.815A44.736,44.736,0,0,0,95.1,26.58a148.84,148.84,0,0,0-13.709,9.345Zm-9.345,8-.719,3.465-5.485-2.085Zm-4.313,10,4.471-4.622,1.8,2.875Zm7.951,5.643.51-6.074,3.1,1.215Zm9.345.978L84.909,60.3l3.379-.582Zm3-8.281,2.5-2.473,3.141,5.334Zm2.876-5.55.359-3.494,5.816,2.113ZM98.567,42.3l-4.443,4.615-1.819-2.876ZM85.484,58.419a7.57,7.57,0,1,1,5.006-2.929A7.57,7.57,0,0,1,85.484,58.419ZM90.6,36.659l-.51,6.074-3.084-1.215Z" transform="translate(-13.19 -7.248)" fill="#fff5aa"/>
        <path id="Path_408" data-name="Path 408" d="M44.3,0A44.743,44.743,0,0,0,0,44.75c0,1.438.072,2.875.2,4.234A186.469,186.469,0,0,1,44.3,0Z" transform="translate(0 0)" fill="#fff5aa"/>
        <path id="Path_409" data-name="Path 409" d="M69.658,96.3c-8.627-.309-17.3-.46-25.973-.532l-6.614,1.682q-2.631,4.723-4.931,9.647A44.757,44.757,0,0,0,96.12,82.47L69.234,89.321A16.951,16.951,0,0,1,69.658,96.3Z" transform="translate(-8.543 -22.684)" fill="#fccf77"/>
        <path id="Path_410" data-name="Path 410" d="M.28,48.984a45.477,45.477,0,0,0,.906,5.65,24.442,24.442,0,0,1,4.249-3.681,190.732,190.732,0,0,1,48-50.12A45.181,45.181,0,0,0,44.829,0h-.453A186.469,186.469,0,0,0,.28,48.984Z" transform="translate(-0.079 0)" fill="#cc5113" opacity="0.85"/>
        <path id="Path_411" data-name="Path 411" d="M7.45,51.273a10.064,10.064,0,0,1,2.76-1.265,17.526,17.526,0,0,1,5.8-.64A186.4,186.4,0,0,1,61.474,2.785,44.239,44.239,0,0,0,55.449,1.16a190.732,190.732,0,0,0-48,50.113Z" transform="translate(-2.094 -0.326)" fill="#e49045" opacity="0.85"/>
        <path id="Path_412" data-name="Path 412" d="M19.36,50a16.534,16.534,0,0,1,6.118,1.625A182.788,182.788,0,0,1,71.615,6.411,44.463,44.463,0,0,0,64.822,3.42,186.4,186.4,0,0,0,19.36,50Z" transform="translate(-5.259 -0.961)" fill="#ffe6b8" opacity="0.85"/>
        <path id="Path_413" data-name="Path 413" d="M27.87,52.8A25.693,25.693,0,0,1,33.2,56.277,174.413,174.413,0,0,1,80.082,11.584a45.7,45.7,0,0,0-6.075-4A182.788,182.788,0,0,0,27.87,52.8Z" transform="translate(-7.57 -2.131)" fill="#86f6c6" opacity="0.85"/>
        <path id="Path_414" data-name="Path 414" d="M13.5,100.934c.805,1.021,1.661,2,2.552,2.94q.769-1.488,1.56-2.955Z" transform="translate(-3.795 -27.871)" fill="#86f6c6" opacity="0.85"/>
        <path id="Path_415" data-name="Path 415" d="M26.439,100.9H18.61q-.8,1.438-1.56,2.955a45.123,45.123,0,0,0,5.176,4.687Q24.2,104.667,26.439,100.9Z" transform="translate(-4.793 -27.865)" fill="#9d9bf0" opacity="0.85"/>
        <path id="Path_416" data-name="Path 416" d="M35.28,57.837a59.444,59.444,0,0,1,5.082,4.8,171.517,171.517,0,0,1,47.194-44.57,44.815,44.815,0,0,0-5.37-4.939A174.414,174.414,0,0,0,35.28,57.837Z" transform="translate(-9.426 -3.691)" fill="#9d9bf0" opacity="0.85"/>
        <path id="Path_417" data-name="Path 417" d="M42.35,64.57c.877.92,1.74,1.848,2.6,2.768a5.751,5.751,0,0,0,1.948,1.251A149.218,149.218,0,0,1,71.716,40.538l-.863-1.524,1.646.834c2.264-1.963,4.6-3.853,6.987-5.679v-.338l.122.23a148.848,148.848,0,0,1,13.709-9.345A44.346,44.346,0,0,0,89.544,20,171.517,171.517,0,0,0,42.35,64.57Z" transform="translate(-11.413 -5.447)" fill="#6765b4" opacity="0.85"/>
        <path id="Path_418" data-name="Path 418" d="M35.8,100.91h-7.34q-2.2,3.76-4.213,7.656a45.189,45.189,0,0,0,5.658,3.724q2.3-4.931,4.931-9.647Z" transform="translate(-6.707 -27.868)" fill="#6765b4" opacity="0.85"/>
        <path id="Path_419" data-name="Path 419" d="M22.078,91.7h7.34c1.891,0,3.774,0,5.665.043,8.677.072,17.332.223,25.973.532a16.951,16.951,0,0,0-.424-6.973c-2.538-8.483-12.494-9.345-16.814-6.039-2.43,2.157-5.543,4-8.4,2.933A5.751,5.751,0,0,1,33.5,80.911c-.855-.92-1.718-1.848-2.6-2.768a59.445,59.445,0,0,0-5.082-4.831A25.692,25.692,0,0,0,20.5,69.833a16.534,16.534,0,0,0-6.118-1.625,17.526,17.526,0,0,0-5.8.64,10.064,10.064,0,0,0-2.76,1.265A24.442,24.442,0,0,0,1.54,73.8a44.527,44.527,0,0,0,8.626,17.972h4.112C16.859,91.7,19.469,91.7,22.078,91.7Z" transform="translate(-0.433 -18.792)" fill="#fffcef"/>
        <path id="Path_420" data-name="Path 420" d="M96.959,45.1l-2.94-5.629-.122-.23-.014.338-.3,6.1Z" transform="translate(-25.923 -10.862)" fill="#ffd86c"/>
        <path id="Path_421" data-name="Path 421" d="M87.633,49.311l-4-2.027L81.99,46.45l.87,1.524,2.034,3.573Z" transform="translate(-22.703 -12.86)" fill="#ffd86c"/>
        <path id="Path_422" data-name="Path 422" d="M115.641,48.45l-6.261,1.718,1.819,2.9Z" transform="translate(-30.257 -13.415)" fill="#ffd86c"/>
        <path id="Path_423" data-name="Path 423" d="M105.619,40.6l-3.609,4.86,3.1,1.215Z" transform="translate(-28.185 -11.239)" fill="#ffd86c"/>
        <path id="Path_424" data-name="Path 424" d="M102.192,79.121l.316-6.441-3.379.582Z" transform="translate(-27.461 -20.118)" fill="#ffd86c"/>
        <path id="Path_425" data-name="Path 425" d="M107.58,69.153l5.636,2.861-3.141-5.334Z" transform="translate(-29.751 -18.461)" fill="#ffd86c"/>
        <path id="Path_426" data-name="Path 426" d="M79.32,70.625l6.261-1.718-1.819-2.9Z" transform="translate(-21.962 -18.278)" fill="#ffd86c"/>
        <path id="Path_427" data-name="Path 427" d="M90.38,77.9,94,73.045,90.89,71.83Z" transform="translate(-25.036 -19.884)" fill="#ffd86c"/>
        <path id="Path_428" data-name="Path 428" d="M82.905,58.52,76.73,59.9l5.485,2.085Z" transform="translate(-21.245 -16.207)" fill="#ffd86c"/>
        <path id="Path_429" data-name="Path 429" d="M111.53,61.034l6.175-1.38-5.816-2.113Z" transform="translate(-30.862 -15.935)" fill="#ffd86c"/>
        <circle id="Ellipse_108" data-name="Ellipse 108" cx="7.57" cy="7.57" r="7.57" transform="translate(62.858 50.333) rotate(-83.37)" fill="#ffd86c"/>
      </g>
    </g>
    <g id="Group_369" data-name="Group 369" transform="translate(-124 106)">
      <g id="Ellipse_96" data-name="Ellipse 96" transform="translate(170 162)" fill="none" stroke="#3a3d7d" stroke-width="2">
        <circle cx="45" cy="45" r="45" stroke="none"/>
        <circle cx="45" cy="45" r="44" fill="none"/>
      </g>
    </g>
  </g>
</svg>
