<svg xmlns="http://www.w3.org/2000/svg" width="90" height="90" viewBox="0 0 90 90">
  <g id="Group_395" data-name="Group 395" transform="translate(-143 -464)">
    <g id="Layer_2" data-name="Layer 2" transform="translate(143.922 464.405)">
      <g id="_08_Low_with_Engery" data-name="08 Low with Engery" transform="translate(0.14 0.595)">
        <path id="Path_484" data-name="Path 484" d="M27.03,92.733a7.7,7.7,0,0,1,6.849,4.075,4.677,4.677,0,0,1,1.266-.177,5,5,0,0,1,4.394,2.625,5.306,5.306,0,0,1,1.217-.141h.531a1.585,1.585,0,0,1,.509-.708c1.67-1.344-2.08-3.948.651-5.5a1.33,1.33,0,0,0,.644-1.889c-.552-1.415-2.222-3-.219-4.245,3.014-1.832-3.637-4.344,0-7.592s-4.613-1.493-.516-7.627c0,0-3.679-3.488-2.335-6.941l-37.88,9.8A44.071,44.071,0,0,0,19.446,99.037a7.57,7.57,0,0,1,7.584-6.3Z" transform="translate(-0.725 -19.319)" fill="#9d9bf0"/>
        <path id="Path_485" data-name="Path 485" d="M33.22,117.32a44.021,44.021,0,0,0,41.085,0Z" transform="translate(-9.816 -34.736)" fill="#9d9bf0"/>
        <path id="Path_486" data-name="Path 486" d="M88.125,51.982a11.4,11.4,0,0,1-4.953,2.066c-.283.269,6.077,6.849-2.717,8.858,0,0,2.922,6.927-2.922,7.974,0,0,2.123,6.87-2.122,7.45.488.616.481,4.415-4.295,5.25-.785-.057,2.123,3.071-2.674,4.486-.828.524,1.04,3.87-2.172,4.811.085,0,.2.368.226.884a5.426,5.426,0,0,1,1.415-.191,5.518,5.518,0,0,1,1.684.269,5.059,5.059,0,0,1,4.733-3.474,4.953,4.953,0,0,1,1.259.17,7.74,7.74,0,0,1,6.5-3.46,7.563,7.563,0,0,1,7.556,6.162A44.035,44.035,0,0,0,106.131,47.32Z" transform="translate(-19.482 -14.262)" fill="#9d9bf0"/>
        <path id="Path_487" data-name="Path 487" d="M39.4,45.914a5.66,5.66,0,0,1,1.939-2.434s-5.533-7.075.708-10.174c0,0-6.806-3.976-2.023-8.6,0,0-5.7-4.783-2.667-6.905,0,0-3.1-3.424-2.618-6.728H69.78c1.465,1.351,5.745,5.936.212,9.007,0,0,6.948,5.738.092,9.905-.219.212,2.625,5.144-1.3,8.306l18.063-4.662A44.049,44.049,0,1,0,1.554,55.685Z" transform="translate(-0.14 -0.595)" fill="#6765b4"/>
        <path id="Path_488" data-name="Path 488" d="M86.826,34.352c6.856-4.2-.092-9.905-.092-9.905,5.533-3.071,1.252-7.655-.212-9.007H78.251c1.726,1.875,4.167,5.6-.559,8.228,0,0,6.941,5.738.092,9.905-.283.269,4.415,8.193-6.233,10.372-.283.269,6.085,6.849-2.717,8.858,0,0,2.929,6.926-2.915,7.974,0,0,2.123,6.87-2.123,7.45.481.616.481,4.415-4.3,5.25-.58-.042.9,1.684-.311,3.155a1.33,1.33,0,0,1-.644,1.889c-2.731,1.557,1.019,4.16-.651,5.5a1.585,1.585,0,0,0-.509.708A5.349,5.349,0,0,1,60.918,86.5a5.271,5.271,0,0,1,3.021-2.123c0-.516-.142-.877-.226-.884,3.212-.941,1.344-4.287,2.172-4.811,4.818-1.415,1.889-4.542,2.674-4.486,4.825-.778,4.825-4.592,4.309-5.193,4.245-.58,2.123-7.45,2.123-7.45,5.844-1.047,2.922-7.974,2.922-7.974,8.794-2.009,2.434-8.589,2.717-8.858a11.4,11.4,0,0,0,4.953-2.066C89.451,39.5,86.607,34.564,86.826,34.352Z" transform="translate(-16.882 -4.937)" fill="#fffcef"/>
        <path id="Path_489" data-name="Path 489" d="M57.066,73.477c4.783-.835,4.783-4.634,4.3-5.25,4.245-.58,2.123-7.45,2.123-7.45,5.844-1.047,2.915-7.974,2.915-7.974,8.766-2.009,2.4-8.589,2.689-8.858,10.613-2.179,5.95-10.1,6.233-10.372,6.849-4.2-.092-9.905-.092-9.905,4.726-2.625,2.285-6.368.559-8.228H49.029c-.481,3.3,2.618,6.728,2.618,6.728-3.035,2.123,2.667,6.905,2.667,6.905-4.783,4.627,2.023,8.6,2.023,8.6-6.247,3.071-.708,10.174-.708,10.174a5.66,5.66,0,0,0-1.939,2.434c-1.344,3.453,2.335,6.941,2.335,6.941-4.1,6.134,4.16,4.379.516,7.627s3.014,5.759,0,7.592c-2,1.217-.333,2.83.219,4.245C57.965,75.161,56.486,73.434,57.066,73.477Z" transform="translate(-14.425 -4.937)" fill="#86f6c6"/>
        <path id="Path_490" data-name="Path 490" d="M70.537,103.51a7.74,7.74,0,0,0-6.5,3.46,4.953,4.953,0,0,0-1.259-.17,5.059,5.059,0,0,0-4.733,3.474A5.517,5.517,0,0,0,56.359,110a5.426,5.426,0,0,0-1.415.191,5.271,5.271,0,0,0-3.021,2.123,5.349,5.349,0,0,0-3.538-1.769h-.531a5.306,5.306,0,0,0-1.217.141,5,5,0,0,0-4.351-2.625,4.677,4.677,0,0,0-1.266.177,7.7,7.7,0,0,0-6.856-4.075,7.57,7.57,0,0,0-7.584,6.3,43.159,43.159,0,0,0,4.684,2.83h41.1a43.866,43.866,0,0,0,5.731-3.608A7.563,7.563,0,0,0,70.537,103.51Z" transform="translate(-7.873 -30.696)" fill="#6765b4"/>
      </g>
    </g>
    <g id="Group_383" data-name="Group 383" transform="translate(-27 302)">
      <g id="Ellipse_96" data-name="Ellipse 96" transform="translate(170 162)" fill="none" stroke="#3a3d7d" stroke-width="2">
        <circle cx="45" cy="45" r="45" stroke="none"/>
        <circle cx="45" cy="45" r="44" fill="none"/>
      </g>
    </g>
  </g>
</svg>
