<svg xmlns="http://www.w3.org/2000/svg" width="90" height="90" viewBox="0 0 90 90">
  <g id="Group_396" data-name="Group 396" transform="translate(-240 -464)">
    <g id="Layer_2" data-name="Layer 2" transform="translate(138.689 604.69)">
      <g id="_09_Suicidal" data-name="09 Suicidal" transform="translate(103.159 -138.843)">
        <path id="Path_491" data-name="Path 491" d="M27.891,29.55a54.646,54.646,0,0,1,21.42-9.832c22.78-4.881,27.835,9.246,27.835,9.246.879,0,3.486,2.587,1.039,4.839,0,0,2.162,4.511-1.764,5.069,0,0-.286,4.072-4.755,2.747,0,.377-4.393,2.231-6.276-1.876h0l-.2-.146c-.8-.258-3.828-.279-3.654-3.849a2.092,2.092,0,0,1-.774-.1A15.34,15.34,0,0,0,61.981,61.04c2.182,1.339,4.484,2.615,6.715,3.793,4.679,2.461,9.065,4.477,11.582,5.578A43.378,43.378,0,0,0,70.425,13.52L2.684,32.451A43.594,43.594,0,0,0,.53,54.3,204.108,204.108,0,0,1,27.891,29.55Z" transform="translate(0.001 -4.093)" fill="#6765b4"/>
        <path id="Path_492" data-name="Path 492" d="M44.572,0A43.419,43.419,0,0,0,3.851,28.356L71.591,9.427A43.231,43.231,0,0,0,44.572,0Z" transform="translate(-1.165 0)" fill="#3a3d7e"/>
        <path id="Path_493" data-name="Path 493" d="M93.5,50.91l.2.146C93.7,50.973,93.626,50.973,93.5,50.91Z" transform="translate(-28.304 -15.411)" fill="#3a3d7e"/>
        <path id="Path_494" data-name="Path 494" d="M68.926,67.073h-.1c-26.064-2.922-29.795-21.065-22.452-30.91a7.67,7.67,0,0,1-2.74.223A17.4,17.4,0,0,1,47.819,32.2c2.615-1.457,6.457-2.943,8.437-2.719,5.578.628,10.508,11.08,15.654,10.627s5.481-8.9,5.481-8.9-5.055-14.12-27.835-9.246A54.646,54.646,0,0,0,28.121,31.8,204.11,204.11,0,0,0,.76,56.544,43.406,43.406,0,0,0,80.508,72.651C78,71.549,73.6,69.534,68.926,67.073Z" transform="translate(-0.229 -6.34)" fill="#3a3d7e"/>
        <path id="Path_495" data-name="Path 495" d="M79.361,42.921c-.774-.244-1.834-1.06-1.666-3.71,0,0-2.789,1.576-4.811-1.632,0,0-.635,3.486-4.1,1.569a11.156,11.156,0,0,1-4.044,2.05C57.4,51.044,61.127,69.188,87.191,72.1h.1c-2.231-1.178-4.532-2.454-6.715-3.793a15.34,15.34,0,0,1-1.213-25.388Z" transform="translate(-18.592 -11.376)" fill="#0d0f3d"/>
        <path id="Path_496" data-name="Path 496" d="M73.128,36.241c2.008,3.207,4.811,1.632,4.811,1.632-.167,2.65.893,3.486,1.667,3.71a2.092,2.092,0,0,0,.774.1c-.174,3.57,2.852,3.591,3.654,3.849.126.042.2.084.2.146h0c1.9,4.107,6.276,2.252,6.276,1.876,4.47,1.325,4.755-2.747,4.755-2.747,3.926-.558,1.764-5.069,1.764-5.069,2.461-2.252-.16-4.818-1.039-4.839,0,0-.342,8.444-5.481,8.9s-10.09-9.992-15.64-10.62c-1.98-.223-5.822,1.262-8.451,2.74A17.021,17.021,0,0,0,62.23,40.1a7.67,7.67,0,0,0,2.74-.223,11.157,11.157,0,0,0,4.072-2.071C72.529,39.721,73.128,36.241,73.128,36.241Z" transform="translate(-18.837 -10.038)" fill="#fffcef"/>
      </g>
    </g>
    <g id="Group_384" data-name="Group 384" transform="translate(70 302)">
      <g id="Ellipse_96" data-name="Ellipse 96" transform="translate(170 162)" fill="none" stroke="#3a3d7d" stroke-width="2">
        <circle cx="45" cy="45" r="45" stroke="none"/>
        <circle cx="45" cy="45" r="44" fill="none"/>
      </g>
    </g>
  </g>
</svg>
